<?xml version="1.0" encoding="iso-8859-1"?>
<!-- Uploaded to: SVG Repo, www.svgrepo.com, Generator: SVG Repo Mixer Tools -->
<svg version="1.1" id="Layer_1" xmlns="http://www.w3.org/2000/svg" xmlns:xlink="http://www.w3.org/1999/xlink" 
	 viewBox="0 0 512 512" xml:space="preserve">
<path style="fill:#3797D3;" d="M323.768,95.672H188.232c-10.345,0-18.732-8.387-18.732-18.732V18.732
	C169.501,8.387,177.888,0,188.232,0h135.535c10.345,0,18.732,8.387,18.732,18.732V76.94
	C342.499,87.285,334.112,95.672,323.768,95.672z"/>
<path style="fill:#4881C2;" d="M323.768,0H256v95.672h67.768c10.345,0,18.732-8.387,18.732-18.732V18.732
	C342.499,8.387,334.112,0,323.768,0z"/>
<path style="fill:#48AEE2;" d="M345.662,58.206H166.338c-80.002,0-146.544,64.785-146.544,146.532v190.514
	c0,10.34,8.392,18.732,18.732,18.732h75.551v79.285c0,10.34,8.379,18.732,18.732,18.732h246.384
	c10.352,0,18.732-8.392,18.732-18.732v-79.285h75.551c10.34,0,18.732-8.392,18.732-18.732V204.738
	C492.207,122.996,425.683,58.206,345.662,58.206z"/>
<g>
	<path style="fill:#3797D3;" d="M345.662,58.206H256V512h123.192c10.352,0,18.732-8.392,18.732-18.732v-79.285h75.551
		c10.34,0,18.732-8.392,18.732-18.732V204.738C492.207,122.996,425.683,58.206,345.662,58.206z"/>
	<path style="fill:#3797D3;" d="M114.064,194.56v219.423H76.6V194.56c0-10.34,8.392-18.732,18.732-18.732
		C105.684,175.828,114.064,184.22,114.064,194.56z"/>
</g>
<path style="fill:#FFC72D;" d="M397.93,332.392H114.07V216.667h283.862v115.724H397.93z"/>
<rect x="256" y="216.663" style="fill:#FFAF00;" width="141.936" height="115.724"/>
<path style="fill:#4881C2;" d="M435.394,413.977V194.563c0-10.345-8.387-18.732-18.732-18.732c-10.345,0-18.732,8.387-18.732,18.732
	v219.414H435.394z"/>
</svg>