<?xml version="1.0" encoding="iso-8859-1"?>
<!-- Uploaded to: SVG Repo, www.svgrepo.com, Generator: SVG Repo Mixer Tools -->
<svg height="800px" width="800px" version="1.1" id="Layer_1" xmlns="http://www.w3.org/2000/svg" xmlns:xlink="http://www.w3.org/1999/xlink" 
	 viewBox="0 0 512.001 512.001" xml:space="preserve">
<path style="fill:#3797D3;" d="M211.075,100.997l-35.397-48.196c-8.388-11.423-0.201-27.562,13.955-27.562H322.37
	c14.173,0,22.333,16.152,13.955,27.562l-35.4,48.2C278.637,131.365,233.367,131.368,211.075,100.997z"/>
<path style="fill:#4881C2;" d="M322.37,25.239h-66.368v98.536c16.89,0,33.779-7.591,44.923-22.774l35.4-48.2
	C344.702,41.392,336.542,25.239,322.37,25.239z"/>
<path style="fill:#48AEE2;" d="M382.367,486.932H129.635c-9.562,0-17.313-7.752-17.313-17.313V298.612
	c-5.42,4.634-13.383,5.599-19.91,1.831L8.66,252.092c-8.28-4.781-11.119-15.37-6.337-23.65L99.844,59.52
	c12.22-21.148,34.969-34.282,59.374-34.282c30.774,0,37.78-1.904,44.368,7.065l35.4,48.201c8.441,11.498,25.577,11.513,34.024,0.003
	l35.404-48.204c3.262-4.441,8.443-7.065,13.955-7.065h30.414c24.406,0,47.155,13.133,59.371,34.275l97.525,168.928
	c4.782,8.28,1.944,18.869-6.337,23.65l-83.751,48.351c-6.527,3.769-14.491,2.804-19.911-1.831v171.006
	C399.68,479.18,391.928,486.932,382.367,486.932z"/>
<path style="fill:#3797D3;" d="M509.678,228.442L412.154,59.514c-12.216-21.142-34.965-34.275-59.371-34.275h-30.414
	c-5.51,0-10.693,2.624-13.955,7.065l-35.403,48.204c-4.222,5.753-10.617,8.627-17.01,8.626v397.798h126.365
	c9.562,0,17.313-7.752,17.313-17.313V298.612c5.419,4.635,13.383,5.599,19.911,1.831l83.751-48.351
	C511.621,247.311,514.459,236.722,509.678,228.442z"/>
</svg>