<?xml version="1.0" encoding="iso-8859-1"?>
<!-- Uploaded to: SVG Repo, www.svgrepo.com, Generator: SVG Repo Mixer Tools -->
<svg height="800px" width="800px" version="1.1" id="Layer_1" xmlns="http://www.w3.org/2000/svg" xmlns:xlink="http://www.w3.org/1999/xlink" 
	 viewBox="0 0 512 512" xml:space="preserve">
<path style="fill:#3797D3;" d="M494.933,346.932H17.067C7.641,346.932,0,339.291,0,329.866V135.909
	c0-21.883,17.803-39.686,39.686-39.686H40.3c18.424,0,34.326,12.668,38.67,30.806c10.084,42.09,60.113,58.355,93.12,32.548
	c5.247-4.103,12.402-4.778,18.325-1.728l150.746,77.621l46.437-58.65c4.782-6.039,13.015-8.126,20.094-5.096
	C471.057,198.837,512,260.911,512,329.866C512,339.291,504.359,346.932,494.933,346.932z"/>
<path style="fill:#4881C2;" d="M512,329.863c0,9.432-7.646,17.067-17.067,17.067H256V191.623l85.163,43.85l46.433-58.652
	c4.79-6.042,13.016-8.124,20.093-5.097c58.095,24.86,97.337,79.087,103.458,141.073C511.716,318.429,512,324.118,512,329.863z"/>
<path style="fill:#FFAF00;" d="M387.3,204.685c-7.39-5.852-18.124-4.605-23.974,2.785L256,343.016v23.131
	c0.605,0.66,1.253,1.291,1.976,1.865c7.393,5.854,18.126,4.6,23.974-2.785L390.085,228.66
	C395.936,221.27,394.689,210.537,387.3,204.685z"/>
<path style="fill:#FFC72D;" d="M152.878,367.499c-7.39-5.852-8.637-16.585-2.785-23.974l134.921-170.398
	c5.85-7.39,16.584-8.637,23.974-2.785c7.39,5.852,8.637,16.585,2.785,23.974L176.852,364.714
	C171.003,372.1,160.271,373.353,152.878,367.499z"/>
<path style="fill:#FFAF00;" d="M308.989,170.341c-7.39-5.852-18.125-4.605-23.974,2.785L256,209.77v54.985l55.774-70.439
	C317.625,186.927,316.377,176.193,308.989,170.341z"/>
<g>
	<path style="fill:#48AEE2;" d="M511.147,312.797H0v85.914c0,9.421,7.646,17.067,17.067,17.067h477.867
		c9.421,0,17.067-7.646,17.067-17.067v-68.847C512,324.118,511.716,318.429,511.147,312.797z"/>
	<path style="fill:#48AEE2;" d="M427.304,181.663c-19.537-11.489-11.422-7.239-209.791-79.961
		c-10.735-3.936-22.272,3.632-22.915,15.077c-0.976,16.767-9.153,32.341-22.439,42.742c-0.023,0.018-0.047,0.033-0.069,0.05
		c-8.636,6.758-18.751,10.854-29.525,12.026c2.233,1.15,151.698,78.122,207.929,107.065
		C422.102,188.241,362.815,263.102,427.304,181.663z"/>
</g>
<g>
	<path style="fill:#3797D3;" d="M427.304,181.663c-18.177-10.689-12.42-7.755-171.304-65.867v114.217
		c36.168,18.624,72.476,37.318,94.492,48.65C422.102,188.241,362.815,263.102,427.304,181.663z"/>
	<path style="fill:#3797D3;" d="M512,329.863v68.847c0,9.421-7.646,17.067-17.067,17.067H256v-102.98h255.147
		C511.716,318.429,512,324.118,512,329.863z"/>
</g>
</svg>